<svg width="210" height="38" viewBox="0 0 210 38" fill="none" xmlns="http://www.w3.org/2000/svg">
<path d="M191.993 0.799999L196.553 0V12.2C197.033 11.1067 197.699 10.2667 198.553 9.68C199.433 9.06667 200.553 8.76 201.913 8.76C203.166 8.76 204.246 9 205.153 9.48C206.086 9.93333 206.859 10.6 207.473 11.48C208.086 12.3333 208.539 13.3733 208.833 14.6C209.126 15.8267 209.273 17.1867 209.273 18.68C209.273 20.2 209.033 21.6133 208.553 22.92C208.099 24.2 207.446 25.3067 206.593 26.24C205.766 27.1733 204.766 27.9067 203.593 28.44C202.419 28.9733 201.126 29.24 199.713 29.24C198.913 29.24 198.059 29.1733 197.153 29.04C196.246 28.9333 195.406 28.8133 194.633 28.68C193.753 28.52 192.873 28.32 191.993 28.08V0.799999ZM201.153 11.96C200.486 11.96 199.873 12.1867 199.313 12.64C198.753 13.0933 198.259 13.6933 197.833 14.44C197.433 15.1867 197.113 16.0267 196.873 16.96C196.659 17.8933 196.553 18.8533 196.553 19.84V25.64C196.793 25.6933 197.179 25.7733 197.713 25.88C198.246 25.9867 198.739 26.04 199.193 26.04C200.179 26.04 201.006 25.8667 201.673 25.52C202.339 25.1733 202.873 24.6933 203.273 24.08C203.673 23.4667 203.953 22.7333 204.113 21.88C204.273 21.0267 204.353 20.0933 204.353 19.08C204.353 18.1467 204.326 17.2533 204.273 16.4C204.219 15.5467 204.073 14.7867 203.833 14.12C203.619 13.4533 203.299 12.9333 202.873 12.56C202.446 12.16 201.873 11.96 201.153 11.96Z" fill="#010101"/>
<path d="M177.479 9.07996H182.039V19.36C182.039 20.96 182.133 22.3066 182.319 23.4C182.533 24.4666 182.759 25.3333 182.999 26C183.293 26.8 183.613 27.4266 183.959 27.88L180.399 29.32C180.079 29.0266 179.786 28.6533 179.519 28.2C179.306 27.8266 179.079 27.3733 178.839 26.84C178.626 26.28 178.479 25.6266 178.399 24.88C177.679 26.4533 176.666 27.5733 175.359 28.24C174.053 28.9066 172.693 29.24 171.279 29.24C169.173 29.24 167.666 28.6266 166.759 27.4C165.879 26.1733 165.439 24.4933 165.439 22.36V9.07996H169.999V22.28C169.999 23.4 170.199 24.28 170.599 24.92C170.999 25.56 171.679 25.88 172.639 25.88C173.226 25.88 173.799 25.72 174.359 25.4C174.946 25.0533 175.466 24.5733 175.919 23.96C176.399 23.3466 176.773 22.6133 177.039 21.76C177.333 20.88 177.479 19.9066 177.479 18.84V9.07996Z" fill="#010101"/>
<path d="M151.383 16.68H140.223V29H135.463V1.92004H140.223V13.2H151.383V1.92004H156.143V29H151.383V16.68Z" fill="#010101
"/>
<path d="M120.493 8.59998C121.266 8.59998 122.026 8.67998 122.773 8.83998C123.519 8.99998 124.186 9.18664 124.773 9.39998C125.466 9.63998 126.106 9.89331 126.693 10.16L125.333 13.28C124.799 13.04 124.266 12.8266 123.733 12.64C123.279 12.48 122.773 12.3333 122.213 12.2C121.679 12.04 121.146 11.96 120.613 11.96C119.999 11.96 119.466 12.1066 119.013 12.4C118.586 12.6933 118.373 13.1333 118.373 13.72C118.373 15.24 119.479 16.4266 121.693 17.28C122.519 17.6 123.266 17.9466 123.933 18.32C124.599 18.6666 125.159 19.08 125.613 19.56C126.093 20.04 126.453 20.6 126.693 21.24C126.933 21.8533 127.053 22.5866 127.053 23.44C127.053 24.1866 126.893 24.92 126.573 25.64C126.279 26.36 125.826 27 125.213 27.56C124.626 28.12 123.893 28.5733 123.013 28.92C122.159 29.24 121.186 29.4 120.093 29.4C119.213 29.4 118.346 29.2933 117.493 29.08C116.639 28.8933 115.866 28.68 115.173 28.44C114.506 28.2 113.973 27.9733 113.573 27.76L112.973 27.48L114.453 24.12L114.973 24.4C115.319 24.6133 115.759 24.84 116.293 25.08C116.826 25.32 117.399 25.5466 118.013 25.76C118.626 25.9466 119.186 26.04 119.693 26.04C120.626 26.04 121.319 25.8533 121.773 25.48C122.226 25.1066 122.453 24.6133 122.453 24C122.453 23.3066 122.199 22.68 121.693 22.12C121.213 21.5333 120.479 21.0533 119.493 20.68C117.439 19.9066 115.959 19.0266 115.053 18.04C114.173 17.0533 113.733 15.7733 113.733 14.2C113.733 13.4533 113.906 12.7466 114.253 12.08C114.599 11.3866 115.066 10.7866 115.653 10.28C116.266 9.74664 116.986 9.33331 117.813 9.03998C118.639 8.74664 119.533 8.59998 120.493 8.59998Z" fill="#010101"/>
<path d="M90.1066 19.52C90.1066 17.7333 90.3466 16.16 90.8266 14.8C91.3332 13.44 92.0132 12.3066 92.8666 11.4C93.7466 10.4666 94.7732 9.77331 95.9466 9.31998C97.1199 8.83998 98.3866 8.59998 99.7466 8.59998C100.947 8.59998 101.96 8.74664 102.787 9.03998C103.64 9.33331 104.333 9.73331 104.867 10.24C105.4 10.7466 105.787 11.3466 106.027 12.04C106.293 12.7333 106.427 13.48 106.427 14.28C106.427 15.24 106.16 16.16 105.627 17.04C105.093 17.8933 104.32 18.6533 103.307 19.32C102.32 19.96 101.12 20.48 99.7066 20.88C98.2932 21.2533 96.7066 21.4533 94.9466 21.48C95.0266 22.0933 95.1466 22.68 95.3066 23.24C95.4932 23.7733 95.7466 24.2533 96.0666 24.68C96.4132 25.08 96.8532 25.4 97.3866 25.64C97.9199 25.88 98.5866 26 99.3866 26C99.9732 26 100.6 25.9333 101.267 25.8C101.933 25.6666 102.547 25.5066 103.107 25.32C103.773 25.1066 104.427 24.8666 105.067 24.6L106.267 27.44C105.573 27.7866 104.827 28.0933 104.027 28.36C103.333 28.6 102.533 28.8133 101.627 29C100.72 29.1866 99.7599 29.28 98.7466 29.28C97.1999 29.28 95.8799 29.0533 94.7866 28.6C93.6932 28.12 92.7999 27.4533 92.1066 26.6C91.4132 25.7466 90.9066 24.72 90.5866 23.52C90.2666 22.32 90.1066 20.9866 90.1066 19.52ZM99.3866 11.72C98.5066 11.72 97.7732 11.9333 97.1866 12.36C96.6266 12.76 96.1732 13.2933 95.8266 13.96C95.4799 14.6 95.2266 15.3333 95.0666 16.16C94.9332 16.96 94.8532 17.7733 94.8266 18.6C96.1066 18.5466 97.1866 18.3866 98.0666 18.12C98.9732 17.8266 99.7066 17.48 100.267 17.08C100.827 16.6533 101.227 16.2 101.467 15.72C101.733 15.24 101.867 14.76 101.867 14.28C101.867 13.5066 101.64 12.8933 101.187 12.44C100.733 11.96 100.133 11.72 99.3866 11.72Z" fill="#010101"/>
<path d="M77.4028 29V15.96C77.4028 14.84 77.2295 13.96 76.8828 13.32C76.5362 12.6533 75.9362 12.32 75.0828 12.32C74.5762 12.32 74.0562 12.4667 73.5228 12.76C73.0162 13.0267 72.5495 13.4267 72.1228 13.96C71.6962 14.4933 71.3495 15.1333 71.0828 15.88C70.8162 16.6267 70.6828 17.4533 70.6828 18.36V29H66.1628V15.96C66.1628 14.84 65.9895 13.96 65.6428 13.32C65.2962 12.6533 64.6962 12.32 63.8428 12.32C63.3095 12.32 62.7762 12.48 62.2428 12.8C61.7362 13.0933 61.2695 13.5333 60.8428 14.12C60.4428 14.7067 60.1095 15.4267 59.8428 16.28C59.6028 17.1067 59.4828 18.04 59.4828 19.08V29H54.9228V18.92C54.9228 17.32 54.8162 15.9867 54.6028 14.92C54.3895 13.8267 54.1628 12.9467 53.9228 12.28C53.6295 11.5067 53.3095 10.88 52.9628 10.4L56.5628 8.96001C56.8295 9.25334 57.0962 9.61334 57.3628 10.04C57.5762 10.4133 57.7895 10.88 58.0028 11.44C58.2162 11.9733 58.3895 12.5867 58.5228 13.28C59.1895 11.68 60.1228 10.5333 61.3228 9.84001C62.5495 9.12001 63.8428 8.76001 65.2028 8.76001C66.5628 8.76001 67.6162 9.10668 68.3628 9.80001C69.1362 10.4933 69.7095 11.3867 70.0828 12.48C70.8028 11.1467 71.7228 10.2 72.8428 9.64001C73.9895 9.05334 75.1895 8.76001 76.4428 8.76001C77.4828 8.76001 78.3495 8.93334 79.0428 9.28001C79.7628 9.60001 80.3228 10.0667 80.7228 10.68C81.1495 11.2667 81.4562 11.9867 81.6428 12.84C81.8295 13.6667 81.9228 14.6 81.9228 15.64V29H77.4028Z" fill="#010101"/>
<path d="M45.5788 19.36C45.5788 20.96 45.6721 22.3067 45.8588 23.4C46.0721 24.4667 46.2988 25.3333 46.5388 26C46.8321 26.8 47.1521 27.4267 47.4988 27.88L43.9388 29.32C43.5921 28.9733 43.2721 28.56 42.9788 28.08C42.7388 27.6533 42.5121 27.1467 42.2988 26.56C42.0854 25.9467 41.9521 25.2267 41.8988 24.4C41.4454 26 40.7121 27.2133 39.6988 28.04C38.7121 28.84 37.3654 29.24 35.6588 29.24C34.4054 29.24 33.3121 29.0133 32.3788 28.56C31.4721 28.08 30.7121 27.4133 30.0988 26.56C29.4854 25.68 29.0321 24.6267 28.7388 23.4C28.4454 22.1733 28.2988 20.8133 28.2988 19.32C28.2988 17.8 28.5254 16.4 28.9788 15.12C29.4588 13.8133 30.1121 12.6933 30.9388 11.76C31.7921 10.8267 32.8054 10.0933 33.9788 9.56001C35.1521 9.02668 36.4454 8.76001 37.8588 8.76001C38.6588 8.76001 39.4854 8.82668 40.3388 8.96001C41.2188 9.06668 42.0321 9.18668 42.7788 9.32001C43.5254 9.45334 44.1521 9.58668 44.6588 9.72001C45.1921 9.82668 45.4988 9.89334 45.5788 9.92001V19.36ZM36.4188 26.04C37.0854 26.04 37.6988 25.8133 38.2588 25.36C38.8188 24.9067 39.2988 24.32 39.6988 23.6C40.1254 22.8533 40.4454 22.0133 40.6588 21.08C40.8988 20.12 41.0188 19.1467 41.0188 18.16V12.4C40.7521 12.32 40.3521 12.2267 39.8188 12.12C39.2854 12.0133 38.8054 11.96 38.3788 11.96C37.3654 11.96 36.5254 12.1333 35.8588 12.48C35.2188 12.8267 34.6988 13.3067 34.2988 13.92C33.8988 14.5333 33.6188 15.2667 33.4588 16.12C33.2988 16.9733 33.2188 17.9067 33.2188 18.92C33.2188 19.8533 33.2454 20.7467 33.2988 21.6C33.3521 22.4533 33.4854 23.2133 33.6988 23.88C33.9388 24.5467 34.2721 25.08 34.6988 25.48C35.1254 25.8533 35.6988 26.04 36.4188 26.04Z" fill="#010101"/>
<path d="M11.52 34.7601C12.72 34.1734 13.64 33.5201 14.28 32.8001C14.92 32.1067 15.3867 31.3867 15.68 30.6401C16 29.9201 16.1733 29.2001 16.2 28.4801C16.2533 27.7334 16.28 27.0401 16.28 26.4001V25.8401C15.6667 26.9601 14.7733 27.8267 13.6 28.4401C12.4267 29.0267 11.0667 29.3201 9.52 29.3201C7.84 29.3201 6.4 29.0001 5.2 28.3601C4 27.7201 3.01333 26.8134 2.24 25.6401C1.46667 24.4401 0.893333 23.0134 0.52 21.3601C0.173333 19.7067 0 17.8667 0 15.8401C0 13.7601 0.24 11.8534 0.72 10.1201C1.2 8.36006 1.92 6.85339 2.88 5.60006C3.86667 4.32006 5.09333 3.33339 6.56 2.64006C8.05333 1.92006 9.81333 1.56006 11.84 1.56006C13.6267 1.56006 15.12 1.85339 16.32 2.44006C17.5467 3.02673 18.5067 3.68006 19.2 4.40006L16.88 7.44006C16.1867 6.74673 15.3333 6.21339 14.32 5.84006C13.3333 5.44006 12.32 5.24006 11.28 5.24006C10.1333 5.24006 9.17333 5.50673 8.4 6.04006C7.62667 6.57339 7 7.30673 6.52 8.24006C6.04 9.14673 5.69333 10.2267 5.48 11.4801C5.26667 12.7067 5.16 14.0267 5.16 15.4401C5.16 16.9601 5.25333 18.3467 5.44 19.6001C5.65333 20.8267 5.96 21.8934 6.36 22.8001C6.78667 23.6801 7.33333 24.3734 8 24.8801C8.66667 25.3601 9.48 25.6001 10.44 25.6001C11.0533 25.6001 11.68 25.4667 12.32 25.2001C12.96 24.9067 13.5333 24.5067 14.04 24.0001C14.5733 23.4667 15 22.8267 15.32 22.0801C15.64 21.3334 15.8 20.4801 15.8 19.5201V15.8801H20.48V27.9201C20.48 29.5467 20.2533 30.9067 19.8 32.0001C19.3733 33.0934 18.8133 34.0001 18.12 34.7201C17.4533 35.4667 16.6933 36.0801 15.84 36.5601C15.0133 37.0667 14.1867 37.5201 13.36 37.9201L11.52 34.7601Z" fill="#010101"/>
</svg>
